<?xml version="1.0" standalone="no"?><!DOCTYPE svg PUBLIC "-//W3C//DTD SVG 1.1//EN" "http://www.w3.org/Graphics/SVG/1.1/DTD/svg11.dtd"><svg t="1660396585443" class="icon" viewBox="0 0 1024 1024" version="1.1" xmlns="http://www.w3.org/2000/svg" p-id="6127" xmlns:xlink="http://www.w3.org/1999/xlink" width="32" height="32"><defs><style type="text/css"></style></defs><path d="M512 989.866667C249.173333 989.866667 34.133333 774.826667 34.133333 512S249.173333 34.133333 512 34.133333s477.866667 215.04 477.866667 477.866667-215.04 477.866667-477.866667 477.866667z m0-904.533334C276.48 85.333333 85.333333 276.48 85.333333 512s191.146667 426.666667 426.666667 426.666667 426.666667-191.146667 426.666667-426.666667S747.52 85.333333 512 85.333333z" fill="#333333" p-id="6128"></path><path d="M512 738.986667c-6.826667 0-13.653333-3.413333-18.773333-6.826667L343.04 580.266667c-10.24-10.24-10.24-25.6 0-35.84s25.6-10.24 35.84 0l133.12 133.12 133.12-133.12c10.24-10.24 25.6-10.24 35.84 0s10.24 25.6 0 35.84l-150.186667 150.186666c-5.12 5.12-11.946667 8.533333-18.773333 8.533334z" fill="#333333" p-id="6129"></path><path d="M512 738.986667c-13.653333 0-25.6-11.946667-25.6-25.6V278.186667c0-13.653333 11.946667-25.6 25.6-25.6s25.6 11.946667 25.6 25.6v435.2c0 13.653333-11.946667 25.6-25.6 25.6z" fill="#333333" p-id="6130"></path><path d="M602.453333 512m-370.346666 0a370.346667 370.346667 0 1 0 740.693333 0 370.346667 370.346667 0 1 0-740.693333 0Z" fill="#333333" opacity=".3" p-id="6131"></path></svg>