<?xml version="1.0" standalone="no"?><!DOCTYPE svg PUBLIC "-//W3C//DTD SVG 1.1//EN" "http://www.w3.org/Graphics/SVG/1.1/DTD/svg11.dtd"><svg t="1660295921819" class="icon" viewBox="0 0 1024 1024" version="1.1" xmlns="http://www.w3.org/2000/svg" p-id="6275" xmlns:xlink="http://www.w3.org/1999/xlink" width="32" height="32"><defs><style type="text/css"></style></defs><path d="M1023.984 512c0 282.772-229.21 511.984-511.984 511.984C229.26 1023.984 0.016 794.772 0.016 512 0.016 229.258 229.26 0.016 512 0.016 794.774 0.016 1023.984 229.258 1023.984 512z" fill="#646C77" p-id="6276"></path><path d="M426.692 512c0-174.932 105.308-325.27 255.99-391.112C630.404 98.044 572.686 85.356 512 85.356 276.382 85.356 85.358 276.382 85.358 512c0 235.648 191.026 426.672 426.642 426.672 60.686 0 118.404-12.718 170.682-35.558C532 837.272 426.692 686.962 426.692 512z" fill="#FECD57" p-id="6277"></path><path d="M170.7 512c0-221.18 168.338-403.082 383.894-424.518A426.776 426.776 0 0 0 512 85.356C276.382 85.356 85.358 276.382 85.358 512c0 235.648 191.026 426.672 426.642 426.672 14.376 0 28.562-0.75 42.594-2.126C339.038 915.08 170.7 733.21 170.7 512z" fill="#F5BA45" p-id="6278"></path></svg>